<svg class="svg-icon" style="width: 1em; height: 1em;vertical-align: middle;fill: currentColor;overflow: hidden;" viewBox="0 0 1024 1024" version="1.1" xmlns="http://www.w3.org/2000/svg"><path d="M904.533333 648.533333h-375.466666c-10.24 0-17.066667-6.826667-17.066667-17.066666s6.826667-17.066667 17.066667-17.066667h375.466666c37.546667 0 85.333333-30.72 85.333334-68.266667V273.066667c0-37.546667-30.72-68.266667-68.266667-68.266667H409.6c-37.546667 0-68.266667 30.72-68.266667 68.266667v119.466666c0 10.24-6.826667 17.066667-17.066666 17.066667s-17.066667-6.826667-17.066667-17.066667V273.066667c0-58.026667 44.373333-102.4 102.4-102.4h512c58.026667 0 102.4 44.373333 102.4 102.4v273.066666c0 58.026667-64.853333 102.4-119.466667 102.4z" fill="" /><path d="M460.8 307.2h-34.133333c-10.24 0-17.066667-6.826667-17.066667-17.066667s6.826667-17.066667 17.066667-17.066666h34.133333c10.24 0 17.066667 6.826667 17.066667 17.066666s-6.826667 17.066667-17.066667 17.066667zM597.333333 307.2h-34.133333c-10.24 0-17.066667-6.826667-17.066667-17.066667s6.826667-17.066667 17.066667-17.066666h34.133333c10.24 0 17.066667 6.826667 17.066667 17.066666s-6.826667 17.066667-17.066667 17.066667zM733.866667 307.2h-34.133334c-10.24 0-17.066667-6.826667-17.066666-17.066667s6.826667-17.066667 17.066666-17.066666h34.133334c10.24 0 17.066667 6.826667 17.066666 17.066666s-6.826667 17.066667-17.066666 17.066667zM870.4 307.2h-34.133333c-10.24 0-17.066667-6.826667-17.066667-17.066667s6.826667-17.066667 17.066667-17.066666h34.133333c10.24 0 17.066667 6.826667 17.066667 17.066666s-6.826667 17.066667-17.066667 17.066667zM440.32 853.333333c-6.826667 0-13.653333 0-20.48-3.413333l-273.066667-51.2c-6.826667 0-10.24-6.826667-10.24-17.066667l34.133334-187.733333v-3.413333c30.72-54.613333 95.573333-78.506667 146.773333-78.506667l98.986667-98.986667c34.133333-34.133333 68.266667-40.96 92.16-17.066666 23.893333 23.893333 30.72 51.2 20.48 71.68l-68.266667 102.4c-23.893333 30.72-30.72 51.2-30.72 58.026666 0 17.066667 10.24 37.546667 23.893333 51.2 17.066667 13.653333 37.546667 20.48 58.026667 17.066667l85.333333-17.066667h139.946667c6.826667 0 13.653333 6.826667 17.066667 13.653334 3.413333 6.826667 0 13.653333-6.826667 20.48l-170.666667 102.4c-23.893333 17.066667-95.573333 37.546667-136.533333 37.546666z m-266.24-81.92l256 47.786667c27.306667 6.826667 109.226667-17.066667 122.88-30.72l3.413333-3.413333 119.466667-71.68h-75.093333l-81.92 17.066666c-30.72 3.413333-61.44-3.413333-85.333334-27.306666-23.893333-20.48-37.546667-47.786667-37.546666-75.093334 0-17.066667 13.653333-44.373333 37.546666-78.506666l68.266667-102.4c3.413333-6.826667-3.413333-17.066667-13.653333-30.72-13.653333-13.653333-44.373333 17.066667-44.373334 17.066666l-102.4 102.4c-6.826667 6.826667-13.653333 10.24-17.066666 10.24-44.373333 0-98.986667 17.066667-119.466667 58.026667l-30.72 167.253333z" fill="" /><path d="M17.066667 853.333333c-10.24 0-17.066667-6.826667-17.066667-17.066666v-307.2c0-3.413333 3.413333-10.24 3.413333-13.653334 3.413333 0 10.24-3.413333 13.653334-3.413333 23.893333 0 146.773333 3.413333 180.906666 37.546667 6.826667 3.413333 6.826667 10.24 6.826667 13.653333-10.24 109.226667-34.133333 221.866667-34.133333 225.28 0 3.413333-3.413333 6.826667-6.826667 10.24-3.413333 3.413333-88.746667 54.613333-146.773333 54.613333z m17.066666-307.2v269.653334c34.133333-6.826667 81.92-30.72 105.813334-44.373334 6.826667-23.893333 23.893333-116.053333 30.72-204.8-27.306667-10.24-88.746667-17.066667-136.533334-20.48z" fill="" /><path d="M768 546.133333c-47.786667 0-85.333333-37.546667-85.333333-85.333333s37.546667-85.333333 85.333333-85.333333c13.653333 0 30.72 3.413333 44.373333 10.24 6.826667 3.413333 6.826667 10.24 6.826667 13.653333s-3.413333 10.24-6.826667 13.653333c-17.066667 10.24-27.306667 27.306667-27.306666 44.373334s10.24 34.133333 27.306666 44.373333c6.826667 3.413333 6.826667 10.24 6.826667 13.653333s-3.413333 10.24-6.826667 13.653334c-13.653333 13.653333-30.72 17.066667-44.373333 17.066666z m0-136.533333c-27.306667 0-51.2 23.893333-51.2 51.2s23.893333 51.2 51.2 51.2c-10.24-13.653333-17.066667-34.133333-17.066667-51.2s6.826667-37.546667 17.066667-51.2z" fill="" /><path d="M836.266667 546.133333c-47.786667 0-85.333333-37.546667-85.333334-85.333333s37.546667-85.333333 85.333334-85.333333 85.333333 37.546667 85.333333 85.333333-37.546667 85.333333-85.333333 85.333333z m0-136.533333c-27.306667 0-51.2 23.893333-51.2 51.2s23.893333 51.2 51.2 51.2 51.2-23.893333 51.2-51.2-23.893333-51.2-51.2-51.2z" fill="" /></svg>