<?xml version="1.0" encoding="utf-8"?>
<!-- Svg Vector Icons : http://www.onlinewebfonts.com/icon -->
<!DOCTYPE svg PUBLIC "-//W3C//DTD SVG 1.1//EN" "http://www.w3.org/Graphics/SVG/1.1/DTD/svg11.dtd">
<svg version="1.1" xmlns="http://www.w3.org/2000/svg" xmlns:xlink="http://www.w3.org/1999/xlink" x="0px" y="0px" viewBox="0 0 1000 1000" enable-background="new 0 0 1000 1000" xml:space="preserve">
<metadata> Svg Vector Icons : http://www.onlinewebfonts.com/icon </metadata>
<g><g transform="translate(0.000000,511.000000) scale(0.100000,-0.100000)"><path d="M4576.9,4308.2C2614.5,4091.4,1058.3,2555.8,832.4,616.3c-18.3-157.4-34.2-333.1-34.2-387.9V128L592.8,326.5C419.4,495.3,378.3,522.7,312.2,522.7c-157.5,0-260.1-157.4-189.4-289.8C141,198.7,323.6,2.5,528.9-202.9c319.5-314.9,385.6-372,458.6-385.6l86.7-13.7l419.8,419.9c401.6,397,422.1,422.1,422.1,506.5c0,116.4-79.9,198.5-196.2,198.5c-75.3,0-107.2-22.8-296.6-209.9l-214.5-209.9v118.6c0,184.8,63.9,618.4,125.5,855.7c317.2,1225.3,1268.7,2240.7,2468.9,2640c356,116.4,547.6,155.2,931,184.8c349.1,27.4,417.6,47.9,463.2,143.8c36.5,73,22.8,146-38.8,221.3c-38.8,47.9-63.9,54.8-223.6,59.3C4837,4326.5,4675,4319.6,4576.9,4308.2z"/><path d="M5724.6,4212.4c-52.5-38.8-89-118.7-89-187.1c0-86.7,114.1-194,205.4-194c50.2,0,93.6,20.5,139.2,66.2s66.2,89,66.2,139.2C6046.3,4185,5838.7,4299.1,5724.6,4212.4z"/><path d="M6536.9,3963.7c-75.3-38.8-102.7-91.3-102.7-182.5c0-207.6,264.7-273.8,372-91.3C6908.8,3863.3,6714.9,4061.8,6536.9,3963.7z"/><path d="M7255.7,3550.7c-125.5-63.9-141.4-246.4-29.6-335.4c191.6-148.3,433.5,102.7,276.1,282.9C7438.2,3568.9,7333.3,3591.7,7255.7,3550.7z"/><path d="M7917.4,3016.7c-146-54.8-189.4-257.8-77.6-346.8c134.6-107.3,330.9-22.8,335.4,141.5C8179.8,2943.7,8031.5,3060.1,7917.4,3016.7z"/><path d="M4857.5,2601.4l-66.2-66.2v-310.3v-310.3h-118.7c-150.6,0-378.8-52.5-502-116.4c-146-75.3-351.4-282.9-426.7-433.5C3406.3,689.3,3896.9-93.4,4659-93.4h132.3v-593.3v-593.3h-410.7c-408.4,0-413,0-467.8-57.1c-75.3-73-75.3-191.7-2.3-278.4l54.8-63.9l413-6.8l413-6.9v-296.6c0-385.6,31.9-454.1,205.4-454.1c173.4,0,205.4,68.5,205.4,456.4v296.6h98.1c298.9,0,556.8,105,759.8,305.7C6555.2-887.4,6413.7-82,5779.4,221.5c-141.5,66.2-200.8,79.9-371.9,91.3l-205.3,11.4v588.7v591h397h394.8l61.6,59.3c77.6,79.9,79.9,189.4,4.6,276.1l-54.7,63.9l-401.6,6.8l-401.6,6.9v308v310.3l-66.2,66.2c-45.6,45.6-89,66.2-139.2,66.2C4946.5,2667.6,4903.1,2647.1,4857.5,2601.4z M4791.3,908.3V310.5l-157.4,13.7c-241.9,20.5-399.3,114.1-504.3,296.6c-84.4,146-105,276.1-68.5,424.4c66.2,276.1,301.2,456.4,600.1,458.6h130.1V908.3z M5601.4-148.1c303.5-141.5,431.3-502,282.9-791.8c-98.1-196.2-280.7-308-533.9-333.1l-148.3-13.7v597.8v595.6h143.8C5446.2-93.4,5521.5-109.3,5601.4-148.1z"/><path d="M8332.7,2302.5c-105-98.1-82.2-267,45.6-333.1c198.5-102.7,394.7,164.3,235,321.7C8542.6,2364.1,8405.7,2368.7,8332.7,2302.5z"/><path d="M8686.4,1549.5c-114.1-89-95.9-267,34.2-333.1c136.9-70.7,292,29.7,292,189.4C9012.7,1567.8,8818.7,1654.5,8686.4,1549.5z"/><path d="M8499.2,406.3c-401.6-397-422.1-422.1-422.1-506.5c0-114.1,86.7-198.5,200.8-198.5c68.5,0,105,25.1,292.1,209.9l214.5,209.9V23c0-162-45.6-527.1-93.5-743.9c-66.2-292.1-141.5-508.8-285.2-810c-575-1200.2-1706.8-1996.6-3048.5-2142.6c-123.2-13.7-273.8-25.1-335.4-25.1c-200.8,0-305.8-157.5-209.9-312.6c61.6-98.1,148.3-111.8,511.1-79.9c1405.6,125.5,2624.1,905.9,3322.3,2126.6C8960.2-1416.8,9140.4-803,9186.1-139l16,228.2l200.8-194c178-171.1,212.2-194,283-194c61.6,0,100.4,18.3,152.9,68.5c59.3,61.6,68.5,82.2,57.1,155.2C9882-4.4,9820.4,68.7,9485,401.8c-337.7,340-406.2,397-479.2,410.7l-86.7,13.7L8499.2,406.3z"/><path d="M1172.4-1074.5c-70.7-27.4-123.2-111.8-123.2-200.8c0-180.3,232.7-257.9,351.4-116.4c31.9,38.8,59.3,89,59.3,114.1c0,82.1-66.2,175.7-139.2,200.8C1236.3-1047.1,1236.3-1047.1,1172.4-1074.5z"/><path d="M1482.7-1868.6c-189.4-191.7,61.6-467.8,267-292.1c50.2,43.4,63.9,73,63.9,148.3c0,114.1-59.3,180.3-178,200.8C1564.9-1800.1,1544.3-1809.3,1482.7-1868.6z"/><path d="M1991.6-2521.2c-50.2-43.4-63.9-73-63.9-148.3c0-114.1,59.3-180.3,178-200.8c70.7-11.4,91.3-2.3,152.9,57C2447.9-2621.6,2196.9-2345.5,1991.6-2521.2z"/><path d="M2653.3-3034.6c-175.7-109.6-100.4-367.4,107.3-367.4c70.7,0,107.3,13.7,148.3,59.3C3070.9-3167,2856.4-2909.1,2653.3-3034.6z"/><path d="M3451.9-3399.7c-260.1-68.4-173.4-447.2,91.3-397c127.8,25.1,196.2,207.6,118.7,319.5C3620.8-3420.2,3520.4-3381.4,3451.9-3399.7z"/><path d="M4143.3-3700.9c-68.5-79.9-73-132.4-25.1-223.6c95.8-189.4,376.5-111.8,376.5,105C4494.7-3637,4262-3559.4,4143.3-3700.9z"/></g></g>
</svg>