<?xml version="1.0" encoding="utf-8"?>
<!-- Svg Vector Icons : http://www.onlinewebfonts.com/icon -->
<!DOCTYPE svg PUBLIC "-//W3C//DTD SVG 1.1//EN" "http://www.w3.org/Graphics/SVG/1.1/DTD/svg11.dtd">
<svg version="1.1" xmlns="http://www.w3.org/2000/svg" xmlns:xlink="http://www.w3.org/1999/xlink" x="0px" y="0px" viewBox="0 0 1000 1000" enable-background="new 0 0 1000 1000" xml:space="preserve">
<metadata> Svg Vector Icons : http://www.onlinewebfonts.com/icon </metadata>
<g><path d="M36.4,407.9c2.4,0.6,4.7,1.5,7.3,1.5h915.4c16.9,0,30.5-13.6,30.5-30.5c0-16.8-13.6-30.5-30.5-30.5H113.9l196-194.4c11.9-11.9,11.9-31.2,0-43.1c-11.9-11.9-31.2-11.9-43.1,0L18.9,356.7C7,368.6,7,387.9,18.9,399.8C23.8,404.7,30,407.1,36.4,407.9z"/><path d="M981.1,602.1c-4.7-4.7-10.7-7-16.8-7.9c-2.6-0.7-5.1-1.6-7.9-1.6H43.5c-16.8,0-30.3,13.5-30.3,30.3c0,16.7,13.6,30.2,30.3,30.2h843.2L691.2,846.6c-11.9,11.8-11.8,30.9,0,42.7c11.9,11.8,31.1,11.8,42.9,0l247-244.5C993,633,993,613.8,981.1,602.1z"/></g>
</svg>